<svg width="78" height="110" viewBox="0 0 78 110" fill="none" xmlns="http://www.w3.org/2000/svg">
<g filter="url(#filter0_d_116_15971)">
<circle cx="38.9236" cy="91.3777" r="6.87966" fill="#6284FF"/>
<path d="M39.058 11.9492C31.8923 11.9573 25.0224 14.8075 19.9555 19.8744C14.8886 24.9414 12.0384 31.8113 12.0303 38.977C12.0303 62.1041 36.601 79.58 37.6452 80.3172C38.0637 80.5958 38.5553 80.7445 39.058 80.7445C39.5608 80.7445 40.0524 80.5958 40.4708 80.3172C41.5151 79.58 66.0858 62.1041 66.0858 38.977C66.0777 31.8113 63.2275 24.9414 58.1606 19.8744C53.0936 14.8075 46.2237 11.9573 39.058 11.9492ZM39.058 29.1487C41.0019 29.1487 42.9021 29.7251 44.5183 30.8051C46.1346 31.885 47.3943 33.42 48.1382 35.2159C48.882 37.0117 49.0767 38.9879 48.6975 40.8944C48.3182 42.8009 47.3822 44.5521 46.0077 45.9266C44.6332 47.3011 42.8819 48.2372 40.9754 48.6164C39.0689 48.9956 37.0928 48.801 35.2969 48.0571C33.501 47.3132 31.9661 46.0535 30.8861 44.4373C29.8062 42.821 29.2298 40.9208 29.2298 38.977C29.2298 36.3704 30.2652 33.8705 32.1084 32.0273C33.9515 30.1842 36.4514 29.1487 39.058 29.1487Z" fill="#6284FF"/>
</g>
<defs>
<filter id="filter0_d_116_15971" x="0.772646" y="0.691591" width="76.5709" height="108.824" filterUnits="userSpaceOnUse" color-interpolation-filters="sRGB">
<feFlood flood-opacity="0" result="BackgroundImageFix"/>
<feColorMatrix in="SourceAlpha" type="matrix" values="0 0 0 0 0 0 0 0 0 0 0 0 0 0 0 0 0 0 127 0" result="hardAlpha"/>
<feOffset/>
<feGaussianBlur stdDeviation="5.62881"/>
<feComposite in2="hardAlpha" operator="out"/>
<feColorMatrix type="matrix" values="0 0 0 0 1 0 0 0 0 1 0 0 0 0 1 0 0 0 1 0"/>
<feBlend mode="normal" in2="BackgroundImageFix" result="effect1_dropShadow_116_15971"/>
<feBlend mode="normal" in="SourceGraphic" in2="effect1_dropShadow_116_15971" result="shape"/>
</filter>
</defs>
</svg>
