<svg width="49" height="60" viewBox="0 0 49 60" fill="none" xmlns="http://www.w3.org/2000/svg">
<path d="M9.54688 40.3119V27.8418H11.7611L16.0806 36.1206L20.4001 27.8418H22.6143V40.3119H20.3094V32.8645L16.5162 40.3119H15.645L11.8518 32.8645V40.3119H9.54688Z" fill="#4764FE"/>
<path d="M24.7986 40.2946V38.2509L30.2797 33.6092C30.691 33.2628 30.9814 32.9367 31.1508 32.6307C31.3202 32.3247 31.4049 32.0389 31.4049 31.7734C31.4049 31.3923 31.3232 31.0546 31.1599 30.7602C30.9965 30.46 30.7667 30.2261 30.4702 30.0587C30.1738 29.8855 29.8259 29.7989 29.4266 29.7989C29.0092 29.7989 28.6402 29.8913 28.3195 30.076C28.005 30.255 27.7599 30.4946 27.5845 30.7948C27.4091 31.0892 27.3274 31.4097 27.3395 31.756H24.7986C24.7986 30.9016 24.9952 30.1626 25.3884 29.5391C25.7817 28.9156 26.3292 28.4336 27.0309 28.093C27.7327 27.7523 28.5494 27.582 29.4811 27.582C30.3341 27.582 31.0964 27.761 31.7679 28.1189C32.4455 28.4711 32.9778 28.9647 33.365 29.5998C33.7522 30.2348 33.9458 30.9709 33.9458 31.808C33.9458 32.4257 33.855 32.9395 33.6736 33.3494C33.4921 33.7536 33.2228 34.1288 32.8659 34.4752C32.509 34.8158 32.0704 35.2026 31.5501 35.6356L28.011 38.5973L27.8114 38.0777H33.9458V40.2946H24.7986Z" fill="#4764FE"/>
<path d="M26.8529 0.682616C26.9299 0.684693 27.006 0.685819 27.0829 0.688824C29.7977 0.818713 29.7512 0.822099 29.9242 3.52278C30.2526 8.64988 32.2317 13.068 35.8044 16.7615C36.7894 17.7802 37.7963 18.7791 38.8251 19.7544C39.5708 20.4604 39.5562 21.1393 38.8546 21.8248C37.6326 23.0196 36.0645 23.2139 34.7169 22.462C32.4622 21.203 30.362 19.6587 28.2532 18.154C26.9785 17.2444 25.8455 16.1391 24.5891 15.2013C22.3284 13.5152 20.3855 13.6039 18.3096 15.5571C16.3299 17.4192 14.4404 19.3765 12.5203 21.3014C10.6278 23.1992 8.8083 25.177 6.82658 26.9768C6.15299 27.5888 5.10203 28.0161 4.18969 28.0871C2.35389 28.2287 1.60254 26.9082 2.50846 25.3216C4.49852 21.8375 6.43482 18.3168 8.57277 14.924C10.4043 12.0175 12.3723 9.17883 14.4862 6.47121C17.3403 2.8156 22.4963 0.522331 26.8529 0.682616ZM34.9304 49.0498C28.6515 48.9676 22.371 48.8064 16.0924 48.8513C14.3028 48.8642 12.4896 49.3712 10.7395 49.8455C9.70079 50.1275 9.527 51.1334 9.71933 52.1224C9.90281 53.0609 10.6873 53.084 11.4158 53.1538C12.7099 53.2768 14.0111 53.3445 15.2984 53.5119C19.7283 54.0872 23.8605 55.6864 27.9949 57.2699C31.941 58.7815 35.927 60.09 40.2533 59.5849C42.7111 59.2977 44.9457 58.5478 46.5669 56.5266C47.0346 55.9435 47.1493 55.476 46.6703 54.7234C42.8277 48.6866 40.5578 42.1846 41.0318 34.9038C41.1224 33.5077 40.5161 33.0013 39.1516 33.3227C38.5827 33.4568 38.0101 33.768 37.5518 34.138C35.8526 35.5111 35.4512 37.491 35.3998 39.4979C35.3199 42.6279 35.4182 45.7619 35.4411 49.0385C35.299 49.0412 35.1141 49.052 34.9304 49.0498ZM36.221 40.3971L36.2212 40.3878L36.221 40.3971ZM27.7956 57.8445C27.8384 57.6369 27.722 57.5456 27.722 57.5456C24.1881 56.3746 20.6654 55.1602 17.1011 54.0812C16.5663 53.9183 15.707 54.2246 15.2309 54.6043C14.4493 55.23 14.7059 56.2782 15.6367 56.4166C19.6207 57.0086 23.6168 57.5285 27.6084 58.0752C27.7781 58.0139 27.7956 57.8445 27.7956 57.8445ZM9.60788 11.4735C6.83504 14.4919 4.03947 17.493 1.30197 20.5429C0.661875 21.2551 1.1355 22.2405 2.15041 22.2206C2.76789 22.2084 3.63774 21.8895 3.95125 21.4144C6.04755 18.2581 8.02351 15.0214 10.0377 11.8128C10.0377 11.8128 10.0695 11.6661 9.90236 11.5316C9.90236 11.5316 9.77939 11.4114 9.60788 11.4735Z" fill="#4765FF"/>
</svg> 